<?xml version="1.0" standalone="no"?>
<!DOCTYPE svg PUBLIC "-//W3C//DTD SVG 20010904//EN"
 "http://www.w3.org/TR/2001/REC-SVG-20010904/DTD/svg10.dtd">
<svg version="1.0" xmlns="http://www.w3.org/2000/svg"
 width="1000.000000pt" height="1000.000000pt" viewBox="0 0 1000.000000 1000.000000"
 preserveAspectRatio="xMidYMid meet">
<g transform="translate(0.000000,1000.000000) scale(0.100000,-0.100000)"
fill="#000000" stroke="none">
<path d="M5410 8909 c-19 -3 -51 -13 -71 -22 -94 -41 -351 -64 -548 -47 -101
8 -132 15 -168 35 -63 35 -100 39 -195 21 -45 -8 -108 -18 -138 -21 -110 -12
-468 -109 -655 -179 -610 -225 -1102 -564 -1571 -1081 -282 -311 -558 -753
-714 -1145 -96 -242 -203 -612 -221 -770 -5 -41 -13 -97 -19 -123 -5 -26 -10
-76 -10 -111 0 -51 5 -68 25 -96 42 -57 47 -94 36 -288 -6 -97 -10 -228 -10
-291 0 -103 -3 -117 -26 -156 -29 -51 -30 -72 -10 -197 34 -214 40 -246 95
-470 106 -437 387 -989 713 -1400 208 -263 553 -596 787 -760 167 -117 467
-294 630 -370 36 -17 99 -46 140 -66 280 -130 558 -209 929 -262 125 -18 167
-21 215 -13 37 6 201 8 411 5 193 -2 386 -5 430 -5 124 -1 420 62 674 144 611
199 1138 514 1580 944 156 152 334 353 451 510 324 432 560 970 674 1535 63
311 65 361 14 407 -39 35 -48 68 -48 175 0 139 44 487 71 560 24 65 24 75 -15
293 -80 451 -211 832 -417 1210 -96 176 -124 223 -201 338 -253 374 -632 757
-1017 1026 -212 148 -487 299 -731 401 -277 115 -246 104 -510 181 -68 20
-223 53 -300 64 -25 3 -65 10 -90 15 -63 13 -149 17 -190 9z m-820 -64 c0 -31
-3 -35 -32 -39 -352 -53 -510 -87 -725 -157 -456 -147 -864 -367 -1245 -672
-131 -104 -439 -410 -550 -547 -298 -367 -511 -748 -661 -1187 -87 -252 -126
-424 -183 -800 -4 -30 -8 -33 -40 -33 l-35 0 7 53 c82 673 341 1322 745 1864
478 643 1155 1131 1910 1378 217 71 516 139 744 168 66 9 65 9 65 -28z m825
25 c3 -5 1 -10 -4 -10 -6 0 -11 5 -11 10 0 6 2 10 4 10 3 0 8 -4 11 -10z
m-390 -422 c2 -13 74 -617 160 -1343 85 -726 158 -1337 161 -1357 4 -27 11
-38 23 -38 10 0 370 290 801 645 431 355 792 645 802 645 10 0 18 -7 18 -17 0
-10 -293 -373 -650 -807 -358 -435 -650 -796 -650 -802 0 -7 4 -15 8 -18 5 -3
620 -77 1368 -166 747 -88 1369 -163 1382 -165 14 -4 22 -13 22 -25 0 -12 -8
-21 -22 -25 -13 -2 -617 -74 -1343 -160 -726 -85 -1338 -158 -1360 -162 -24
-5 -41 -14 -43 -24 -2 -9 275 -353 643 -800 355 -431 645 -792 645 -801 0 -11
-7 -18 -18 -18 -9 0 -370 290 -801 645 -431 355 -790 645 -797 645 -7 0 -15
-4 -19 -9 -3 -6 -78 -619 -166 -1363 -87 -744 -162 -1363 -164 -1375 -7 -31
-43 -31 -50 0 -2 12 -77 634 -165 1381 -88 747 -163 1363 -166 1367 -3 5 -11
9 -18 9 -7 0 -367 -292 -802 -650 -434 -357 -797 -650 -806 -650 -11 0 -18 7
-18 19 0 10 290 371 645 801 355 431 645 791 645 801 0 11 -11 18 -37 22 -21
3 -632 76 -1358 162 -726 85 -1330 158 -1342 160 -14 4 -23 13 -23 25 0 12 8
21 23 25 12 2 631 76 1376 164 745 88 1359 165 1364 170 5 5 7 16 5 23 -3 7
-296 366 -652 798 -355 431 -646 792 -646 802 0 11 7 18 18 18 10 0 371 -291
802 -646 432 -355 791 -649 798 -651 7 -3 18 -1 23 4 5 5 81 619 169 1364 88
745 163 1364 165 1377 4 14 13 22 25 22 12 0 21 -8 25 -22z m2460 -448 c10
-11 16 -20 13 -20 -3 0 -13 9 -23 20 -10 11 -16 20 -13 20 3 0 13 -9 23 -20z
m65 -55 c13 -14 21 -25 18 -25 -2 0 -15 11 -28 25 -13 14 -21 25 -18 25 2 0
15 -11 28 -25z m80 -70 c13 -14 21 -25 18 -25 -2 0 -15 11 -28 25 -13 14 -21
25 -18 25 2 0 15 -11 28 -25z m250 -250 c13 -14 21 -25 18 -25 -2 0 -15 11
-28 25 -13 14 -21 25 -18 25 2 0 15 -11 28 -25z m96 -112 c27 -31 44 -54 37
-50 -14 9 -97 107 -90 107 2 0 26 -26 53 -57z m120 -150 c15 -20 23 -33 16
-29 -13 8 -56 66 -49 66 3 0 17 -17 33 -37z m89 -119 c9 -15 12 -23 6 -20 -11
7 -35 46 -28 46 3 0 12 -12 22 -26z m165 -254 c6 -11 8 -20 6 -20 -3 0 -10 9
-16 20 -6 11 -8 20 -6 20 3 0 10 -9 16 -20z m45 -80 c9 -16 13 -30 11 -30 -3
0 -12 14 -21 30 -9 17 -13 30 -11 30 3 0 12 -13 21 -30z m55 -100 c34 -68 32
-83 -2 -17 -28 53 -39 77 -33 77 3 0 18 -27 35 -60z m49 -100 c11 -24 11 -24
-3 -6 -9 11 -16 24 -16 30 0 12 5 7 19 -24z m50 -105 c0 -5 -8 6 -19 25 -11
19 -19 40 -19 45 0 6 8 -6 19 -25 11 -19 19 -39 19 -45z m30 -70 c0 -5 -6 1
-14 15 -8 14 -14 30 -14 35 0 6 6 -1 14 -15 8 -14 14 -29 14 -35z m69 -165
c98 -262 173 -559 210 -828 15 -111 16 -132 5 -132 -10 0 -12 7 -8 20 3 11 0
55 -9 97 -8 43 -18 103 -22 133 -3 30 -15 96 -26 145 -11 50 -24 110 -30 135
-17 80 -89 312 -133 430 -24 63 -47 124 -51 135 -5 14 -4 17 4 10 5 -5 33 -71
60 -145z m-7454 -1802 c56 -370 95 -546 176 -783 200 -586 510 -1078 948
-1507 426 -416 886 -702 1439 -891 252 -87 424 -126 801 -183 30 -5 32 -7 32
-45 l0 -40 -52 7 c-1306 160 -2438 956 -3024 2126 -189 377 -314 774 -374
1183 -11 77 -20 146 -20 153 0 7 14 12 35 12 31 0 35 -3 39 -32z m7681 -25
c-76 -628 -303 -1233 -653 -1743 -265 -384 -631 -752 -1007 -1011 -520 -359
-1135 -591 -1757 -664 l-58 -6 0 40 c0 38 2 40 33 45 369 56 545 95 782 176
586 200 1078 510 1507 948 416 426 702 886 891 1439 87 252 126 424 183 801 5
30 7 32 46 32 l40 0 -7 -57z"/>
<path d="M4895 5540 c-198 -44 -352 -180 -417 -368 -18 -53 -23 -89 -23 -172
0 -83 5 -119 23 -172 56 -164 180 -288 348 -350 85 -31 263 -31 348 0 168 62
292 186 348 350 32 95 32 249 0 344 -57 164 -183 291 -348 349 -67 23 -215 33
-279 19z"/>
</g>
</svg>
